<?xml version="1.0" encoding="UTF-8"?>
<!DOCTYPE svg PUBLIC "-//W3C//DTD SVG 1.1//EN" "http://www.w3.org/Graphics/SVG/1.1/DTD/svg11.dtd">
<svg xmlns="http://www.w3.org/2000/svg" version="1.1" width="402px" height="80px" style="shape-rendering:geometricPrecision; text-rendering:geometricPrecision; image-rendering:optimizeQuality; fill-rule:evenodd; clip-rule:evenodd" xmlns:xlink="http://www.w3.org/1999/xlink">
<g><path style="opacity:1" fill="#183a5d" d="M 63.5,0.5 C 65.1667,0.5 66.8333,0.5 68.5,0.5C 72.0169,2.09573 74.6836,4.7624 76.5,8.5C 82.1753,12.5108 87.1753,17.1775 91.5,22.5C 91.5,23.1667 91.5,23.8333 91.5,24.5C 92.0312,26.5441 93.1978,28.2107 95,29.5C 94.8452,45.8647 95.6785,61.8647 97.5,77.5C 97.5,77.8333 97.5,78.1667 97.5,78.5C 93.1667,78.5 88.8333,78.5 84.5,78.5C 80.8642,78.4059 77.3642,77.7393 74,76.5C 73.1814,66.2562 73.348,56.0895 74.5,46C 72.6183,45.8019 70.9516,45.3019 69.5,44.5C 68.4324,43.5655 67.099,43.2322 65.5,43.5C 64.0813,42.5489 62.4147,42.2155 60.5,42.5C 59.8761,52.2634 60.5427,61.7634 62.5,71C 57.5111,71.4993 52.5111,71.6659 47.5,71.5C 45.4006,70.3882 43.0673,69.7215 40.5,69.5C 40.5,52.8333 40.5,36.1667 40.5,19.5C 47.8506,12.8191 55.5172,6.48578 63.5,0.5 Z"/></g>
<g><path style="opacity:1" fill="#b8c3ce" d="M 63.5,0.5 C 63.5,0.166667 63.5,-0.166667 63.5,-0.5C 68.5,-0.5 73.5,-0.5 78.5,-0.5C 83.0846,5.01662 87.418,10.6833 91.5,16.5C 91.5,17.1667 91.5,17.8333 91.5,18.5C 86.4937,13.1608 81.4937,7.82747 76.5,2.5C 74.0671,0.946219 71.4005,0.279552 68.5,0.5C 66.8333,0.5 65.1667,0.5 63.5,0.5 Z"/></g>
<g><path style="opacity:1" fill="#435f7c" d="M 68.5,0.5 C 71.4005,0.279552 74.0671,0.946219 76.5,2.5C 81.4937,7.82747 86.4937,13.1608 91.5,18.5C 91.5,19.8333 91.5,21.1667 91.5,22.5C 87.1753,17.1775 82.1753,12.5108 76.5,8.5C 74.6836,4.7624 72.0169,2.09573 68.5,0.5 Z"/></g>
<g><path style="opacity:1" fill="#8b9dae" d="M 40.5,19.5 C 40.5,36.1667 40.5,52.8333 40.5,69.5C 43.0673,69.7215 45.4006,70.3882 47.5,71.5C 44.7938,71.4249 42.1272,71.0916 39.5,70.5C 39.1701,53.3251 39.5034,36.3251 40.5,19.5 Z"/></g>
<g><path style="opacity:1" fill="#284a69" d="M 91.5,24.5 C 93.1477,25.8098 94.8144,27.1431 96.5,28.5C 97.4994,44.8197 97.8328,61.1531 97.5,77.5C 95.6785,61.8647 94.8452,45.8647 95,29.5C 93.1978,28.2107 92.0312,26.5441 91.5,24.5 Z"/></g>
<g><path style="opacity:1" fill="#516b86" d="M 91.5,22.5 C 93.8367,24.6664 96.3367,26.6664 99,28.5C 99.4999,45.1633 99.6666,61.83 99.5,78.5C 98.8333,78.5 98.1667,78.5 97.5,78.5C 97.5,78.1667 97.5,77.8333 97.5,77.5C 97.8328,61.1531 97.4994,44.8197 96.5,28.5C 94.8144,27.1431 93.1477,25.8098 91.5,24.5C 91.5,23.8333 91.5,23.1667 91.5,22.5 Z"/></g>
<g><path style="opacity:1" fill="#eff1f3" d="M 91.5,16.5 C 95.5479,20.2335 99.3813,24.2335 103,28.5C 103.5,45.4967 103.667,62.4967 103.5,79.5C 103.167,79.5 102.833,79.5 102.5,79.5C 102.83,62.6583 102.497,45.9916 101.5,29.5C 98.3908,25.6029 95.0574,21.9362 91.5,18.5C 91.5,17.8333 91.5,17.1667 91.5,16.5 Z"/></g>
<g><path style="opacity:1" fill="#c5cfd7" d="M 101.5,29.5 C 102.497,45.9916 102.83,62.6583 102.5,79.5C 96.5,79.5 90.5,79.5 84.5,79.5C 84.5,79.1667 84.5,78.8333 84.5,78.5C 88.8333,78.5 93.1667,78.5 97.5,78.5C 98.1667,78.5 98.8333,78.5 99.5,78.5C 101.485,62.5342 102.152,46.2009 101.5,29.5 Z"/></g>
<g><path style="opacity:1" fill="#455d7a" d="M 219.5,30.5 C 223.138,29.7366 224.638,31.0699 224,34.5C 219.415,36.4126 217.915,35.0793 219.5,30.5 Z"/></g>
<g><path style="opacity:1" fill="#12375a" d="M 313.5,30.5 C 314.5,30.5 315.5,30.5 316.5,30.5C 316.5,42.1667 316.5,53.8333 316.5,65.5C 315.5,65.5 314.5,65.5 313.5,65.5C 313.5,53.8333 313.5,42.1667 313.5,30.5 Z"/></g>
<g><path style="opacity:1" fill="#57718a" d="M 313.5,30.5 C 314.568,29.5655 315.901,29.2322 317.5,29.5C 317.828,41.6783 317.495,53.6783 316.5,65.5C 316.5,53.8333 316.5,42.1667 316.5,30.5C 315.5,30.5 314.5,30.5 313.5,30.5 Z"/></g>
<g><path style="opacity:1" fill="#12375a" d="M 324.5,30.5 C 325.5,30.5 326.5,30.5 327.5,30.5C 327.5,42.1667 327.5,53.8333 327.5,65.5C 326.5,65.5 325.5,65.5 324.5,65.5C 324.5,53.8333 324.5,42.1667 324.5,30.5 Z"/></g>
<g><path style="opacity:1" fill="#57718a" d="M 324.5,30.5 C 325.568,29.5655 326.901,29.2322 328.5,29.5C 328.828,41.6783 328.495,53.6783 327.5,65.5C 327.5,53.8333 327.5,42.1667 327.5,30.5C 326.5,30.5 325.5,30.5 324.5,30.5 Z"/></g>
<g><path style="opacity:1" fill="#96a7b6" d="M 91.5,18.5 C 95.0574,21.9362 98.3908,25.6029 101.5,29.5C 102.152,46.2009 101.485,62.5342 99.5,78.5C 99.6666,61.83 99.4999,45.1633 99,28.5C 96.3367,26.6664 93.8367,24.6664 91.5,22.5C 91.5,21.1667 91.5,19.8333 91.5,18.5 Z"/></g>
<g><path style="opacity:1" fill="#425a78" d="M 161.5,32.5 C 161.768,34.099 161.434,35.4324 160.5,36.5C 146.023,33.8095 139.856,39.8095 142,54.5C 147.029,62.5905 153.695,64.2572 162,59.5C 162.743,61.4406 162.576,63.2739 161.5,65C 143.022,69.5172 134.855,62.3505 137,43.5C 141.829,32.1747 149.996,28.508 161.5,32.5 Z"/></g>
<g><path style="opacity:1" fill="#a5b4c1" d="M 244.5,32.5 C 242.901,32.2322 241.568,32.5655 240.5,33.5C 239.957,33.44 239.624,33.1067 239.5,32.5C 241.299,31.2121 242.965,31.2121 244.5,32.5 Z"/></g>
<g><path style="opacity:1" fill="#a7b5c2" d="M 283.5,32.5 C 281.708,32.366 280.042,32.6993 278.5,33.5C 278.97,32.3065 279.97,31.6399 281.5,31.5C 283.343,31.4077 284.009,31.7411 283.5,32.5 Z"/></g>
<g><path style="opacity:1" fill="#274465" d="M 166.5,51.5 C 167.906,51.0269 168.573,50.0269 168.5,48.5C 169.906,48.0269 170.573,47.0269 170.5,45.5C 171.906,45.0269 172.573,44.0269 172.5,42.5C 174.451,38.7706 176.784,35.2706 179.5,32C 181.134,31.5065 182.801,31.3398 184.5,31.5C 184.5,38.8333 184.5,46.1667 184.5,53.5C 186.167,53.5 187.833,53.5 189.5,53.5C 189.5,54.5 189.5,55.5 189.5,56.5C 187.833,56.5 186.167,56.5 184.5,56.5C 184.5,59.5 184.5,62.5 184.5,65.5C 183.167,65.5 181.833,65.5 180.5,65.5C 180.5,62.5 180.5,59.5 180.5,56.5C 175.167,56.5 169.833,56.5 164.5,56.5C 164.12,54.302 164.787,52.6354 166.5,51.5 Z M 179.5,37.5 C 180.488,42.6405 180.821,47.9738 180.5,53.5C 176.818,53.6653 173.152,53.4986 169.5,53C 173.477,48.2014 176.81,43.0347 179.5,37.5 Z"/></g>
<g><path style="opacity:1" fill="#3e5775" d="M 278.5,33.5 C 280.042,32.6993 281.708,32.366 283.5,32.5C 280.984,43.228 278.151,53.8947 275,64.5C 273,65.8333 271,65.8333 269,64.5C 266.667,56.5 264.333,48.5 262,40.5C 259.518,48.7736 257.352,57.107 255.5,65.5C 252.921,65.9167 250.754,65.25 249,63.5C 245.851,53.5702 243.018,43.5702 240.5,33.5C 241.568,32.5655 242.901,32.2322 244.5,32.5C 247.442,40.5776 249.942,48.9109 252,57.5C 255.214,49.0252 257.714,40.3585 259.5,31.5C 261.766,31.1412 263.599,31.8078 265,33.5C 267.489,41.7889 269.822,50.1222 272,58.5C 274.072,50.1211 276.239,41.7878 278.5,33.5 Z"/></g>
<g><path style="opacity:1" fill="#ced5dc" d="M 161.5,32.5 C 162.788,34.0348 162.788,35.7015 161.5,37.5C 160.893,37.3764 160.56,37.0431 160.5,36.5C 161.434,35.4324 161.768,34.099 161.5,32.5 Z"/></g>
<g><path style="opacity:1" fill="#2c4869" d="M 363.5,63.5 C 363.5,57.1667 363.5,50.8333 363.5,44.5C 361.833,44.5 360.167,44.5 358.5,44.5C 358.5,43.5 358.5,42.5 358.5,41.5C 359.833,41.5 361.167,41.5 362.5,41.5C 362.338,39.4727 362.505,37.4727 363,35.5C 364.011,34.6634 365.178,34.33 366.5,34.5C 366.5,36.8333 366.5,39.1667 366.5,41.5C 368.5,41.5 370.5,41.5 372.5,41.5C 372.5,42.8333 372.5,44.1667 372.5,45.5C 370.5,45.5 368.5,45.5 366.5,45.5C 366.334,50.1785 366.501,54.8452 367,59.5C 367.879,62.3463 369.546,63.013 372,61.5C 372.494,63.1341 372.66,64.8008 372.5,66.5C 370.143,66.6633 367.81,66.4966 365.5,66C 364.619,65.2917 363.953,64.4584 363.5,63.5 Z"/></g>
<g><path style="opacity:1" fill="#385271" d="M 197.5,58.5 C 197.5,60.5 198.5,61.5 200.5,61.5C 203.465,62.7335 206.465,62.7335 209.5,61.5C 211.048,61.8212 211.715,62.8212 211.5,64.5C 197.302,68.814 191.136,63.4807 193,48.5C 195.811,42.1771 200.645,39.6771 207.5,41C 212.558,44.0035 214.891,48.5035 214.5,54.5C 208.833,54.5 203.167,54.5 197.5,54.5C 197.5,55.8333 197.5,57.1667 197.5,58.5 Z M 209.5,50.5 C 205.298,50.8168 201.298,50.4834 197.5,49.5C 202.198,42.681 206.198,43.0143 209.5,50.5 Z"/></g>
<g><path style="opacity:1" fill="#204162" d="M 219.5,41.5 C 220.833,41.5 222.167,41.5 223.5,41.5C 223.5,49.5 223.5,57.5 223.5,65.5C 222.167,65.5 220.833,65.5 219.5,65.5C 219.5,57.5 219.5,49.5 219.5,41.5 Z"/></g>
<g><path style="opacity:1" fill="#3d5675" d="M 292.5,40.5 C 297.447,39.6276 301.613,40.9609 305,44.5C 305.5,51.4921 305.666,58.4921 305.5,65.5C 303.549,65.7733 302.049,65.1066 301,63.5C 296.924,67.034 292.591,67.3674 288,64.5C 286,60.8333 286,57.1667 288,53.5C 291.83,51.235 295.997,50.0683 300.5,50C 301.418,46.5571 299.918,44.7238 296,44.5C 293.432,44.9508 291.098,45.9508 289,47.5C 288.202,45.7412 288.369,44.0745 289.5,42.5C 290.739,42.0576 291.739,41.3909 292.5,40.5 Z M 300.5,53.5 C 301.762,56.8671 300.762,59.7004 297.5,62C 294.353,62.9269 292.019,61.9269 290.5,59C 291.167,58 291.833,57 292.5,56C 295.251,55.0572 297.917,54.2239 300.5,53.5 Z"/></g>
<g><path style="opacity:1" fill="#385271" d="M 339.5,58.5 C 339.5,60.5 340.5,61.5 342.5,61.5C 345.465,62.7335 348.465,62.7335 351.5,61.5C 353.048,61.8212 353.715,62.8212 353.5,64.5C 339.302,68.814 333.136,63.4807 335,48.5C 337.811,42.1771 342.645,39.6771 349.5,41C 354.558,44.0035 356.891,48.5035 356.5,54.5C 350.833,54.5 345.167,54.5 339.5,54.5C 339.5,55.8333 339.5,57.1667 339.5,58.5 Z M 351.5,50.5 C 347.298,50.8168 343.298,50.4834 339.5,49.5C 344.198,42.681 348.198,43.0143 351.5,50.5 Z"/></g>
<g><path style="opacity:1" fill="#335170" d="M 65.5,43.5 C 64.1739,47.6139 63.5073,52.1139 63.5,57C 63.8982,62.3735 63.8982,67.5401 63.5,72.5C 60.1667,72.5 56.8333,72.5 53.5,72.5C 51.2646,72.7947 49.2646,72.4614 47.5,71.5C 52.5111,71.6659 57.5111,71.4993 62.5,71C 60.5427,61.7634 59.8761,52.2634 60.5,42.5C 62.4147,42.2155 64.0813,42.5489 65.5,43.5 Z"/></g>
<g><path style="opacity:1" fill="#8e9eaf" d="M 172.5,42.5 C 172.573,44.0269 171.906,45.0269 170.5,45.5C 170.427,43.9731 171.094,42.9731 172.5,42.5 Z"/></g>
<g><path style="opacity:1" fill="#697f96" d="M 358.5,44.5 C 360.167,44.5 361.833,44.5 363.5,44.5C 363.5,50.8333 363.5,57.1667 363.5,63.5C 362.51,57.69 362.177,51.69 362.5,45.5C 360.901,45.7678 359.568,45.4345 358.5,44.5 Z"/></g>
<g><path style="opacity:1" fill="#6a8298" d="M 65.5,43.5 C 65.5,53.1667 65.5,62.8333 65.5,72.5C 64.8333,72.5 64.1667,72.5 63.5,72.5C 63.8982,67.5401 63.8982,62.3735 63.5,57C 63.5073,52.1139 64.1739,47.6139 65.5,43.5 Z"/></g>
<g><path style="opacity:1" fill="#97a7b6" d="M 65.5,43.5 C 67.099,43.2322 68.4324,43.5655 69.5,44.5C 68.8333,44.5 68.1667,44.5 67.5,44.5C 66.8333,53.8333 66.1667,63.1667 65.5,72.5C 65.5,62.8333 65.5,53.1667 65.5,43.5 Z"/></g>
<g><path style="opacity:1" fill="#d9dfe5" d="M 67.5,44.5 C 68.4732,54.0838 68.8065,63.7504 68.5,73.5C 63.3054,73.8205 58.3054,73.4872 53.5,72.5C 56.8333,72.5 60.1667,72.5 63.5,72.5C 64.1667,72.5 64.8333,72.5 65.5,72.5C 66.1667,63.1667 66.8333,53.8333 67.5,44.5 Z"/></g>
<g><path style="opacity:1" fill="#8e9eaf" d="M 170.5,45.5 C 170.573,47.0269 169.906,48.0269 168.5,48.5C 168.427,46.9731 169.094,45.9731 170.5,45.5 Z"/></g>
<g><path style="opacity:1" fill="#8e9eaf" d="M 168.5,48.5 C 168.573,50.0269 167.906,51.0269 166.5,51.5C 166.427,49.9731 167.094,48.9731 168.5,48.5 Z"/></g>
<g><path style="opacity:1" fill="#b9c4ce" d="M 197.5,49.5 C 201.298,50.4834 205.298,50.8168 209.5,50.5C 205.317,51.8111 200.984,51.8111 196.5,50.5C 196.624,49.8933 196.957,49.56 197.5,49.5 Z"/></g>
<g><path style="opacity:1" fill="#b9c4ce" d="M 339.5,49.5 C 343.298,50.4834 347.298,50.8168 351.5,50.5C 347.317,51.8111 342.984,51.8111 338.5,50.5C 338.624,49.8933 338.957,49.56 339.5,49.5 Z"/></g>
<g><path style="opacity:1" fill="#94a3b4" d="M 197.5,58.5 C 198.833,59.1667 199.833,60.1667 200.5,61.5C 198.5,61.5 197.5,60.5 197.5,58.5 Z"/></g>
<g><path style="opacity:1" fill="#94a3b4" d="M 339.5,58.5 C 340.833,59.1667 341.833,60.1667 342.5,61.5C 340.5,61.5 339.5,60.5 339.5,58.5 Z"/></g>
<g><path style="opacity:1" fill="#a6b4c1" d="M 211.5,64.5 C 211.715,62.8212 211.048,61.8212 209.5,61.5C 210.172,60.7326 211.005,60.0659 212,59.5C 212.78,61.3869 212.613,63.0536 211.5,64.5 Z"/></g>
<g><path style="opacity:1" fill="#a6b4c1" d="M 353.5,64.5 C 353.715,62.8212 353.048,61.8212 351.5,61.5C 352.172,60.7326 353.005,60.0659 354,59.5C 354.78,61.3869 354.613,63.0536 353.5,64.5 Z"/></g>
</svg>
